<?xml version="1.0" standalone="no"?>
<!DOCTYPE svg PUBLIC "-//W3C//DTD SVG 20010904//EN"
 "http://www.w3.org/TR/2001/REC-SVG-20010904/DTD/svg10.dtd">
<svg version="1.0" xmlns="http://www.w3.org/2000/svg"
 width="863.000000pt" height="863.000000pt" viewBox="0 0 863.000000 863.000000"
 preserveAspectRatio="xMidYMid meet">
<metadata>
Created by potrace 1.11, written by Peter Selinger 2001-2013
</metadata>
<g transform="translate(0.000000,863.000000) scale(0.100000,-0.100000)"
fill="#000000" stroke="none">
<path d="M4006 7913 c-1 -1 -46 -5 -101 -8 -55 -3 -111 -8 -125 -10 -14 -2
-47 -7 -75 -10 -27 -3 -72 -10 -100 -15 -27 -5 -68 -11 -90 -14 -22 -3 -69
-12 -105 -20 -36 -8 -76 -17 -90 -20 -81 -16 -389 -113 -405 -127 -5 -5 -15
-9 -22 -9 -8 0 -33 -9 -55 -20 -23 -11 -45 -20 -48 -20 -4 0 -43 -17 -86 -37
-43 -20 -81 -38 -84 -38 -30 -6 -217 -111 -213 -119 4 -6 3 -8 -2 -4 -4 4 -28
-4 -53 -18 -45 -25 -312 -203 -322 -214 -3 -3 -43 -36 -90 -72 -47 -37 -103
-83 -125 -103 -22 -19 -43 -35 -47 -35 -5 0 -8 -7 -8 -15 0 -8 -3 -14 -7 -13
-13 4 -52 -35 -46 -45 3 -6 2 -7 -4 -4 -17 11 -234 -222 -358 -383 -27 -36
-52 -67 -56 -70 -3 -3 -12 -16 -19 -29 -7 -14 -17 -30 -22 -35 -33 -41 -78
-106 -78 -115 0 -5 -6 -16 -13 -23 -34 -34 -220 -372 -210 -382 4 -3 1 -6 -5
-6 -6 0 -14 -10 -17 -22 -4 -13 -15 -41 -25 -63 -45 -99 -63 -140 -65 -155 -2
-8 -4 -16 -5 -17 -2 -2 -3 -6 -5 -10 -1 -5 -7 -21 -14 -38 -67 -160 -166 -556
-186 -741 -4 -32 -8 -70 -11 -84 -25 -157 -25 -686 1 -822 3 -13 7 -43 10 -68
4 -37 15 -110 20 -130 1 -3 5 -25 9 -50 35 -198 141 -552 216 -715 5 -11 19
-42 31 -70 28 -65 113 -237 146 -294 67 -117 147 -241 156 -241 6 0 8 -3 4 -6
-6 -7 74 -121 147 -208 23 -28 41 -53 41 -57 0 -4 4 -11 9 -16 5 -5 6 -2 2 7
-5 8 3 2 17 -15 14 -16 23 -33 20 -38 -2 -4 1 -6 9 -5 7 2 12 -3 11 -9 -2 -7
0 -12 5 -10 4 1 8 -1 10 -5 1 -4 27 -32 57 -62 30 -29 52 -55 49 -58 -2 -3 3
-11 13 -19 15 -12 16 -12 8 1 -4 8 10 -3 32 -25 22 -22 39 -43 36 -47 -2 -5 2
-8 10 -8 8 0 32 -19 54 -43 22 -23 52 -50 67 -60 15 -10 24 -23 20 -28 -3 -5
-1 -8 4 -7 5 2 24 -13 42 -32 18 -19 27 -26 20 -15 -7 11 3 4 23 -17 20 -20
38 -34 41 -31 3 3 8 -2 12 -11 3 -9 10 -13 15 -10 5 3 9 -2 9 -11 0 -9 4 -14
9 -10 5 3 21 -6 34 -19 14 -14 28 -22 31 -19 3 3 8 -2 12 -11 3 -9 10 -13 15
-10 5 3 12 -2 15 -10 3 -9 12 -16 20 -16 7 0 20 -10 28 -22 9 -12 16 -18 16
-13 0 6 3 6 8 0 8 -11 33 -27 80 -51 17 -9 32 -21 32 -26 0 -5 4 -7 9 -4 5 3
12 -1 15 -10 3 -8 10 -13 15 -10 5 3 14 -1 21 -9 7 -8 19 -15 26 -15 8 0 14
-4 14 -8 0 -5 16 -14 35 -22 19 -7 32 -17 29 -22 -3 -5 -2 -7 3 -6 14 4 53
-13 53 -23 0 -5 3 -8 8 -7 14 4 52 -14 52 -24 0 -6 3 -8 6 -5 4 3 16 1 28 -5
11 -7 28 -13 36 -14 8 -2 16 -8 18 -14 2 -5 8 -8 13 -4 5 3 9 0 9 -6 0 -6 4
-8 10 -5 5 3 10 1 10 -5 0 -6 5 -8 10 -5 6 3 17 -1 26 -9 8 -9 24 -16 34 -16
10 0 22 -5 25 -10 4 -6 11 -8 16 -5 5 4 9 1 9 -5 0 -6 5 -8 10 -5 6 3 10 1 10
-5 0 -6 4 -9 8 -6 5 3 21 -2 36 -10 16 -7 37 -14 47 -14 11 0 19 -4 19 -9 0
-5 7 -12 16 -15 8 -3 12 -2 9 4 -3 6 1 7 9 4 9 -3 16 -10 16 -16 0 -5 4 -6 10
-3 5 3 16 3 22 -2 7 -4 16 -8 21 -9 4 -1 8 -2 10 -3 1 -2 13 -4 27 -7 14 -2
32 -7 40 -11 8 -3 21 -5 28 -4 6 1 12 -2 12 -7 0 -5 6 -9 13 -10 47 -5 82 -13
86 -21 3 -4 14 -7 24 -5 9 1 17 -2 17 -7 0 -4 7 -6 15 -3 8 4 21 1 29 -5 7 -6
15 -9 18 -6 2 3 26 -1 52 -9 27 -8 54 -12 62 -9 8 3 14 1 14 -4 0 -5 10 -9 23
-8 12 1 27 0 32 -4 6 -3 24 -7 40 -8 42 -4 80 -10 80 -13 0 -1 25 -3 55 -5 30
-2 75 -6 100 -10 113 -16 654 -20 644 -4 -2 3 11 7 29 8 66 4 133 10 172 16
22 4 51 8 65 10 14 2 41 6 60 10 19 4 42 9 50 10 8 1 22 5 30 8 8 3 33 9 55
12 57 9 59 10 73 19 7 4 16 5 19 2 3 -3 17 1 32 8 14 7 34 12 44 11 9 -2 17 1
17 7 0 6 9 8 20 5 11 -3 20 -1 20 5 0 5 4 7 9 3 5 -3 13 0 16 6 4 5 13 8 21 5
8 -3 14 -1 14 3 0 5 8 8 18 7 9 -2 27 3 39 11 12 8 27 12 33 8 5 -3 10 -2 10
3 0 6 7 13 16 16 10 4 13 2 8 -7 -4 -6 3 -3 15 8 13 11 25 19 27 18 2 -2 5 -3
7 -2 1 0 13 3 27 5 13 2 27 9 31 16 4 6 12 7 18 4 6 -4 11 -2 11 4 0 6 5 8 10
5 6 -3 10 -1 10 6 0 7 3 9 7 6 3 -4 11 -2 18 3 6 5 22 11 34 13 13 2 27 10 32
18 5 8 9 11 9 6 0 -4 15 0 33 10 17 9 35 16 40 15 4 -1 7 2 7 8 0 5 6 7 14 4
7 -3 16 1 19 9 3 9 19 18 36 22 16 3 35 13 41 21 7 7 16 12 20 9 4 -3 24 7 45
20 20 14 42 22 48 19 7 -4 9 -4 5 1 -10 10 29 38 41 30 5 -3 17 5 25 17 9 12
16 18 16 13 0 -4 10 1 23 12 12 11 32 24 45 28 12 3 22 11 22 16 0 6 4 8 9 4
6 -3 14 3 20 12 6 10 11 14 11 10 0 -8 21 7 48 35 9 10 22 18 29 18 7 0 23 11
36 24 14 14 28 22 31 19 3 -4 6 -1 6 5 0 7 4 12 10 12 9 0 42 25 76 58 8 7 19
10 25 6 7 -4 9 -3 6 3 -7 11 26 42 83 82 19 13 43 33 54 45 10 11 22 20 27 19
5 -2 8 1 6 5 -2 9 53 65 131 132 29 24 52 49 52 56 0 6 10 19 22 30 14 12 18
14 13 4 -5 -9 -5 -12 1 -7 5 5 9 12 9 17 0 4 14 21 30 36 17 15 30 30 30 34 0
3 19 25 43 48 24 23 40 42 36 42 -4 0 9 16 29 37 20 20 37 39 37 43 0 4 11 20
25 36 14 16 60 81 102 144 105 159 118 179 144 230 13 24 30 50 37 58 7 7 10
17 7 22 -3 5 -2 10 3 12 9 3 90 168 142 286 75 173 169 469 196 622 3 14 7 33
10 42 3 10 7 28 9 40 2 13 9 50 14 83 6 33 13 83 16 110 3 28 8 57 10 65 27
96 27 657 0 850 -3 19 -7 53 -10 75 -5 37 -7 53 -20 123 -3 15 -8 43 -11 62
-3 19 -10 53 -15 75 -5 22 -12 51 -15 65 -21 105 -114 395 -171 530 -45 108
-162 351 -172 360 -3 3 -13 19 -21 35 -8 17 -29 54 -47 83 -18 29 -33 55 -33
58 0 2 -5 10 -10 17 -6 7 -36 50 -67 97 -31 46 -62 91 -70 98 -7 7 -13 21 -13
29 0 9 -3 13 -7 10 -3 -4 -18 10 -31 31 -14 20 -28 39 -32 42 -3 3 -13 15 -21
26 -54 80 -328 366 -342 357 -5 -3 -7 -1 -4 4 4 6 -9 24 -29 39 -20 16 -55 46
-78 67 -22 21 -75 64 -116 95 -41 31 -77 59 -80 63 -3 3 -63 45 -135 92 -71
48 -134 91 -140 95 -28 23 -254 140 -380 198 -157 71 -380 155 -452 170 -12 2
-33 8 -45 13 -13 5 -26 9 -30 10 -4 1 -13 3 -20 6 -20 6 -180 44 -208 49 -14
2 -41 7 -60 10 -19 3 -48 8 -65 11 -41 8 -70 12 -136 19 -31 4 -66 9 -78 11
-59 11 -526 27 -535 18z"/>
<path d="M6609 1753 c-13 -16 -12 -17 4 -4 16 13 21 21 13 21 -2 0 -10 -8 -17
-17z"/>
</g>
</svg>
